<svg xmlns="http://www.w3.org/2000/svg" viewBox="0 0 700 700"><defs><style>.cls-1{fill:none;}.cls-2{fill:#91101a;}.cls-3{fill:#d34040;}.cls-4{fill:#ee938a;}.cls-5{fill:#d85855;}.cls-6{fill:#f4a39f;}.cls-7{fill:#f9b9b7;}.cls-8{clip-path:url(#clip-path);}.cls-9{fill:#b42d32;}.cls-10{clip-path:url(#clip-path-2);}.cls-11{fill:#7c0a18;}.cls-12{fill:#681016;}.cls-13{clip-path:url(#clip-path-3);}.cls-14{clip-path:url(#clip-path-4);}.cls-15{fill:#e97672;}.cls-16{fill:#ef857e;}.cls-17{fill:#db5d5d;}.cls-18{fill:#c44;}.cls-19{fill:#42050b;}.cls-20{clip-path:url(#clip-path-5);}.cls-21{fill:#f9b4b2;}.cls-22{clip-path:url(#clip-path-6);}.cls-23{fill:#8e2832;}.cls-24{clip-path:url(#clip-path-7);}</style><clipPath id="clip-path"><circle class="cls-1" cx="350" cy="350" r="350"/></clipPath><clipPath id="clip-path-2"><path class="cls-2" d="M460 345c20.56 8.91 30.67 31.33 38.67 45.33 18.67 1.33 38 1.33 48 5.33s31.33 2.67 58 2.67S686 397 704 433c-18.67 88-56.67 235.33-250 274s-300-4-364.67-88.67c15.33-30.67 29.33-58 44-64s82-32 126.67-45.33 180-172.67 200-164z"/></clipPath><clipPath id="clip-path-3"><path class="cls-3" d="M459.33 349.67c11.44 2.29 10.67 16.67 8 45.33S452.67 477.67 438 513s-22 53.33-32 96.67S382.67 731 382.67 731L264 726.33c9.33-50 17.33-88 15.33-106s-8-32.67-8-38S286 541.67 290 517.67s152.67-171.34 169.33-168z"/></clipPath><clipPath id="clip-path-4"><path class="cls-4" d="M217 83.67c-20.67 8-54.67 28-67 55.67S138.67 191 145 215s12 43 13.33 62-3.67 36.67-1 51.33 12 25 20.67 50 16.67 54 20.33 67S205 470 212 475.67s12.67 7.33 16.33 11S237.67 505 249 511.33s20.33 8 33.67 8.33C286 531.33 296 541.16 300.33 549 306 559.33 305 583 316 589.33c9.67-12.33 13.33-23 15-30.67s7.69-15.31 14.33-20.67c10.33-8.33 33.67-30.33 54-52.33s34.33-39.33 42.33-52.33S468.33 378 463 332.67c4.33.33 9.33-2.33 11-12s7.67-20 12-29 11.33-20.67 10.33-38S487 214 476 214.67s-21 9-24.67 21.33-5 34.67-7.67 36.33-10.33 2-13.33-.33-10.66-15-25.33-32.67S378.67 211 377.67 204s11-28.33 11-55-5-59-25.67-77-52-18-77.67-12.33-44 26.33-54 34.67c-.67-4.67 1-11.33 3-16-8.67 4.33-15.33 13-18.67 16.33-.99-4.34.67-8.34 1.34-11z"/></clipPath><clipPath id="clip-path-5"><path class="cls-5" d="M217.33 427.5c-3.18-1.39-1.5-6.33 3.17-12.5s13.33-10.67 19.67-11.5 10.17 2 14.67 1.5 6.83-4 13-4.83 15.83 1.17 30.33 7 24.17 11 23.83 16.67c-5.33-1.83-10.83-4.67-19.83-5.83s-18.5-1.67-26.33-.83-12.67 3-16.83 3.33-11.33-.45-17.67.33c-13.51 1.66-21.34 7.83-24.01 6.66z"/></clipPath><clipPath id="clip-path-6"><path class="cls-6" d="M174.28 280c3.38 3.38 8.1 6.53 16.76 7.09s15.86-.9 20.14-4.05 7.09-5.4 7.2-8.55c-3.15-3.49-9.56-9.34-18.9-9s-18.11 2.57-25.2 14.51z"/></clipPath><clipPath id="clip-path-7"><path class="cls-7" d="M284.71 259.84c-.45 2.4 1.35 3.9 3.75 4.2s6.3 4.2 10.8 5.55 15.15 1.35 20.55-.15 15.3-8.55 15.3-12.75c-4.2-4.5-13.8-10.5-24.45-9.9s-17.85 1.21-25.95 13.05z"/></clipPath></defs><g class="cls-8" id="Layer_4" data-name="Layer 4"><circle class="cls-9" cx="350" cy="350" r="350"/><path class="cls-2" d="M460 345c20.56 8.91 30.67 31.33 38.67 45.33 18.67 1.33 38 1.33 48 5.33s31.33 2.67 58 2.67S686 397 704 433c-18.67 88-56.67 235.33-250 274s-300-4-364.67-88.67c15.33-30.67 29.33-58 44-64s82-32 126.67-45.33 180-172.67 200-164z"/><path class="cls-10 cls-11" d="M281.67 567c-24.88 17.82-36.67 25-51 29-5 7-10.5 19.17-10.5 19.17 2 9.33 7.33 23.17 12.83 31.83-4.33 8.83-16.33 33.83-16.33 33.83l-8.67-2.5s15.33-25 15.67-30.33-11.67-26-11-31.67 9.67-20 9.67-20c-26.67 3.67-50.67 6.33-68.67 2.33s-32.34-13.33-34.67-41.33S302.33 489 302.33 489s4 60.33-20.66 78z"/><path class="cls-12" d="M150.33 145.67c-5.76-18-4-32.33 7-44.67-9-2-14.67 6-18.67 7.33C144 95 153.67 87 165 81.67S187 72 195.67 66s25.33-22.67 61-25c-3-5.33-9.33-4.67-12-7.33 13-3 45-3.67 68 8 35.67 1.67 70.33 10 98.33 29.67S458.33 111 468.33 147s6.67 74.67 5 91.33-13.33 54-49 45-268.33-120-274-137.66z"/><path class="cls-3" d="M459.33 349.67c11.44 2.29 10.67 16.67 8 45.33S452.67 477.67 438 513s-22 53.33-32 96.67S382.67 731 382.67 731L264 726.33c9.33-50 17.33-88 15.33-106s-8-32.67-8-38S286 541.67 290 517.67s152.67-171.34 169.33-168z"/><g class="cls-13"><path class="cls-9" d="M329.67 598.5c4.5-3.5 8-10.33 9.5-17.17s3.67-11.17 9.5-11.17 6.83 9 9.17 18.33a33.57 33.57 0 0 0 11.83 18.83c5 4.17 11.5 7 14.33 6s11.67-8.17 14.33-12.33c-3.17 16-16.83 66.5-26.33 129.5h21.5L422.75 560s-4.71 1.54-8.92 7.33-18.08 28.54-20.46 28.54-10.25-2-15.62-6.87-6.62-7.5-7.25-13.37-1.12-12.12-2.37-17.5-3.62-9.75-8.25-9-21.37 15-23.87 21.75-3.93 22.62-6.34 27.62zM311 601.5a30.9 30.9 0 0 1-11.75-3.12c-3-1.62-7.5-3.5-9.12-2.87s3.63 16.38-5.37 19.5c1.13-2.12 1.38-5.12-.25-11s-4.25-18.25-4.62-20.12.25-2.87 2.38-2.62 11.75 3 16 6.13 5.98 4.98 12.73 14.1z"/></g><path class="cls-4" d="M217 83.67c-20.67 8-54.67 28-67 55.67S138.67 191 145 215s12 43 13.33 62-3.67 36.67-1 51.33 12 25 20.67 50 16.67 54 20.33 67S205 470 212 475.67s12.67 7.33 16.33 11S237.67 505 249 511.33s20.33 8 33.67 8.33C286 531.33 296 541.16 300.33 549 306 559.33 305 583 316 589.33c9.67-12.33 13.33-23 15-30.67s7.69-15.31 14.33-20.67c10.33-8.33 33.67-30.33 54-52.33s34.33-39.33 42.33-52.33S468.33 378 463 332.67c4.33.33 9.33-2.33 11-12s7.67-20 12-29 11.33-20.67 10.33-38S487 214 476 214.67s-21 9-24.67 21.33-5 34.67-7.67 36.33-10.33 2-13.33-.33-10.66-15-25.33-32.67S378.67 211 377.67 204s11-28.33 11-55-5-59-25.67-77-52-18-77.67-12.33-44 26.33-54 34.67c-.67-4.67 1-11.33 3-16-8.67 4.33-15.33 13-18.67 16.33-.99-4.34.67-8.34 1.34-11z"/><g class="cls-14"><path class="cls-15" d="M235.25 362.25a21.79 21.79 0 0 0 16.25-5.37c4.75-4.12 7-9.5 13.5-13a28.9 28.9 0 0 1 17-3.62c4.63.5 8.5 4.25 7.25 7s-3.54 4.75-6.08 6.75-7.92 4.75-13.17 7.13-9.71 7.27-13 11.88c-6.67 9.33-15.67 11-19.33 10s1.46-17.14-2.42-20.77z"/><path class="cls-16" d="M395.17 330.67c1.71-3.51 5.33-1.67 5.33 4.33s.67 16.17-3.67 31-7.67 24.17-18.33 27.67-25.17-1-43.33-10.67-26.79-16-30.79-21.62S296 344.25 298 342.5c1.66-1.46 5.63 4.63 15.5 10s18.75 7.63 33.88 8.25 30.33-2.37 36.79-9.25c3.08-5.75 8.29-15.29 11-20.83zM410 438c-6.88 18.59-19.33 33.67-32.33 52S357 528.33 352 541.67s-15.67 52.67-36 52.67-39-69.67-14-88 44.33-26.67 65.67-40.67S416.67 420 410 438z"/><path class="cls-15" d="M249.67 460.83c-2.83 9.83-7 23 7.67 28.5s30.83 4.67 50.67.33 47.75-20.92 71.75-40.17 52.75-52.75 61.5-56.75C436 403.75 431.25 413 426 420a248.76 248.76 0 0 1-23 25.67c-7.83 7.5-26.33 23.33-54.33 40.67-17.46 10.81-31.33 26.33-48 30.67S229.33 529 230 499.67s9-38.67 19.67-38.84z"/><path class="cls-17" d="M193.5 88.5c-8.5 28.5-15 51-13.5 81.5s14 50.18 16 58-9.67 5-9.33 15c8 0 22.58.25 26.08 2.5S221 253 223.5 258s3.25 13 2.5 23.75-2.5 24.5-4.75 37.25-5.5 20.75-5.25 26 3.75 9.75 6.5 10.5 5.25 1.25 8.5 4 15.25 9.25 25 3.5c-2.5 8.75-10.75 16.25-18.5 22.75S226 396.5 226 399.25s1.25 7.25 5 9.25 11.25 8.5 16.25 10.75c-5 9.5-3 18.5 4.25 21.5 7.25-.75 22.75-2.75 29.25-4.25.75 5.75-4 6.5-10.75 7.75s-15 2.75-7.75 8C248.5 461 240.5 471 240.5 481.5s4 17.25 18.75 20.75 26.75 3.5 40.25 1.5 20.5-5.25 26-2.25a64.3 64.3 0 0 1-9.75 9c-3.5 9-3.5 20.75-3.25 32.75s3.25 33.75.5 46.25-85-4-130.5-99.5-66.5-210-69-302 80-99.5 80-99.5z"/><path class="cls-18" d="M168 110c-14 39-18 62.5-15 86s10 40 15.25 47.5 39.31 0 44.5 2c7 2.75 11.92 13 12.58 16.17s3 12-2.33 14.17-45.33-7.5-55.83 10.5c-1.51 2.6-5.5 8.17-7 14.67a92.66 92.66 0 0 0-1.67 21.83c.33 5.17 3.5 15.83 11.67 23.33s13.17 12.67 16.17 22.5 4.67 27.67 8.33 27.83 5.5-11.67 10.67-17a119.7 119.7 0 0 0-2.5 22.83c0 8.17.17 12.67 2 16.17a19.07 19.07 0 0 0 4.33 5.83 9.29 9.29 0 0 0 7.17 2.17c2.5-.5 5.17 2.83 4 10.33a100.55 100.55 0 0 0 .83 29.83 110.42 110.42 0 0 0 10.17 27.67c5 9.67-12 6-27.67-16.67s-43.33-109-52.67-148.33S130.33 215 130.67 178.67 149.67 115 168 110z"/><path class="cls-17" d="M273 239.75c-4 15.89-2.5 22.67-1 27.92s5.67 6.33 6.33 3.67 1.42-8.33 5.17-11.83 50.25-5.58 54.5-2.67 8-4.58 9-13.58 1-12-1.5-15-46.25-2.26-54.25-.26-16.5 4.75-18.25 11.75z"/></g><path class="cls-19" d="M169.17 88.5c8.5-3.67 16.83-5.83 25.17-5-1.17 2.17-6.5 1-13 2.5s-10.51 4.33-12.17 2.5zM170.17 94.33a30.26 30.26 0 0 1 17-4.67c-.5 1.67-4 1.5-8.33 2.67s-7.84 3.17-8.67 2zM212.5 73.83A66.72 66.72 0 0 1 239.67 63c0 3-7 3-14.17 6s-11.5 7-13 4.83zM398 159c20.67 10.67 32 23.33 42.67 39.33-4 3.33-10.67-11.33-22-21-11.67-9.95-23.34-15-20.67-18.33zM400.49 175.5c20 11.82 30.63 25.11 40.37 41.69-4.18 3.1-10-11.92-20.78-22.21-11.08-10.6-22.44-16.3-19.59-19.48zM222.17 62.67c8.83-6.33 17.17-9.83 30.5-11.67-1 2.83-8.5 3-16 5.83s-12 7.34-14.5 5.84z"/><path class="cls-12" d="M258 356.83c-2.12-1.69 2-7 7.5-9.67s12.5-2.83 14.5.17a4.89 4.89 0 0 1-3.33 7.5c-3.33.33-4.83-2.17-7.83-1.67s-9.17 5.01-10.84 3.67zM273 239.75c1.25-6.25 6.25-13.5 12-15s17.5-2.75 25.5-4.25 16.5-3.5 21-3.5 10.5 6.25 14 11.25c-10.5 3-19 2.75-28.25 2.75s-21.25-1-27.75.25-9.5 6.75-16.5 8.5zM212.75 245.5c-8-5-17.75-7.25-30.75-7.75s-27 3-28.25 9.75c4.75 6.5 10 8.75 13.25 8.75s13-4.75 22-6.5 20.5-1.25 23.75-4.25z"/><path class="cls-5" d="M217.33 427.5c-3.18-1.39-1.5-6.33 3.17-12.5s13.33-10.67 19.67-11.5 10.17 2 14.67 1.5 6.83-4 13-4.83 15.83 1.17 30.33 7 24.17 11 23.83 16.67c-5.33-1.83-10.83-4.67-19.83-5.83s-18.5-1.67-26.33-.83-12.67 3-16.83 3.33-11.33-.45-17.67.33c-13.51 1.66-21.34 7.83-24.01 6.66z"/><path class="cls-20 cls-9" d="M241.33 400.33c-2.31 9.71-.33 15.83 6.33 21s-20.33 21.67-33.5 8.83 29.67-40.33 27.17-29.83z"/><path class="cls-9" d="M217.33 248.67c3.83 2.67 8.67 9.5 9.33 15.17s.33 26.5-2.33 43.83S217 340.5 217 346s6.17 9 9 9.17 5.5 4 10.5 6.33 9.67 3.67 14.33 2.67 5.5-2.5 7.33-2.5c-.33 2.33-6.33 5.83-13.33 4.67s-10.5-3.17-13.17-5.17-4-3.83-6.17-4-5.33-1.17-8.33-5-2.67-7.67-1.33-13.83 5.5-22 6.83-31.33 3.15-36.1 2-43.17c-1.33-8.17-8.49-12.51-7.33-15.17z"/><path class="cls-9" d="M166.17 274.17c3.67-8.33 8.83-14.67 18.83-16.33s20.67-1.84 36.33 7.16c-2 1.17-12-4.83-21.5-6s-19.67.33-25.33 5.83-5.5 9.5-8.33 9.34zM182.83 293.5c8.17 3.5 23.17 2.83 29.33-3-2-.67-6.08 2.67-15 3.42-8.32.7-12.49-2.25-14.33-.42zM281.17 250.17c4-5 12.67-9.83 24-11.67s18.5-.83 22.83.67 8.33 6 10 9.33c-2.83 0-5.17-5.83-11.5-7.5s-14.49-2.11-24.83.33c-12 2.84-18 9.5-20.5 8.84zM451.33 367c-2.67 15-13 38-23.67 53s-46 51-79 66.33C350.33 482 369 473 386.33 458s35.14-32 46.17-51c12.83-22.17 15.17-40.33 18.83-40zM285.33 519.5c11.17-1.17 21.5-2.83 30.17-7.67s13.67-11.5 15-21.83c-2.67.83-3.83 9.17-8.5 14.17s-13.57 9.1-22.5 10.83-13.17 1.83-14.17 4.5z"/><path class="cls-17" d="M213.67 169.5c13.67-4.83 26.67-8.17 48.83-7.5-.5 3.5-13.5 2.17-27.33 4.5s-19.84 6.67-21.5 3zM190.67 195.5c28.5-9.67 50.67-12.67 86.5-12.33-.67 3.83-23.33 1.17-47.67 5-23.66 3.72-36 11-38.83 7.33z"/><path class="cls-5" d="M226.75 223.88c1.75 4.63 3 10.75 1.38 12.25s-5.25 3.25-8.12 2.88c1.38-1.87 5.75-2.5 7-4.62s-2.26-9.51-.26-10.51zM253.5 222.5c-.87 7.5 1.88 14.5 5.5 18.13s7.5 6.75 13.38 3.25c-1.75-1.87-4.75 1.13-8.25-1.37-3.11-2.22-7.5-7-8.5-11.37s.25-8.01-2.13-8.64zM280 331.67c6.5-.5 11.67 3.67 11.67 9.5s-2.84 10.83-8.5 12.83c-.17-2.67 6.67-5.67 6.33-12.83-.37-8-9.5-6.34-9.5-9.5zM300.33 276.5c7 3.5 22 4 27.83-2.17-2.33-.5-7.33 2.83-14.83 2.83s-11-2.66-13-.66zM347.63 253.38c3.88 2.38 11.13 2.88 14.75-.87-1.25-1-4.25.75-7.62 1s-5.13-1.88-7.13-.13zM346.38 257.75c2.25 3.13 7.25 4.5 11.63 3.25-1-1.75-3.37-.87-6-1.75s-4.01-2.75-5.63-1.5zM319 364.5c15.33 10.83 39.67 12.33 51 5.17-3-1.33-10 3-25 1.67s-22.67-9.67-26-6.84zM384.17 351.5c9-10.17 14.83-24.5 16.17-41.67-3.33.83-3.51 11-7 20.83s-11.01 16.67-9.17 20.84zM299.25 350.5c1.75 1.67 6.42 17.5 22.75 38.67 7.46 9.66 10.67 20.67 4.5 31.33-1.75-3.25 1.5-9 .75-14.75s-7-14.67-14.25-25.42c-6.71-9.95-14.5-24.83-13.75-29.83z"/><path class="cls-9" d="M212.33 359a94 94 0 0 0-10.67 38.5c-.67 15.17.83 25.83 7.5 26.83 0-3-4.17-4.33-5-13.17a93 93 0 0 1 2.33-30.83c2.84-11.83 7.34-19 5.84-21.33zM241.75 457c13.75-6.25 26.25-7.75 42.25-4.75-2.25 3-10.75-.25-21.25 1.25s-19.25 6.25-21 3.5zM225 433.25c2.75 5.75 10 10 22.5 9.25A262.37 262.37 0 0 0 285 437c8.5-2 16.5-5.5 17-10.5-3-.25-4 5.25-17 8s-29 5-37.75 5.5-13.42-1.37-15.75-2.75c-2.75-1.62-3.5-3.75-6.5-4zM467 233.75c3.25-5.5 11-10.25 15.25-5s9 17.25 6.75 30.5-5.5 25.25-11.75 28.75-8.75 0-7.75-5 3.5-9.75 1.5-10.75a6 6 0 0 0-7 2.25c-1.25 2.25-.25 5.25-1.75 6.5-2-2.5-1-7.75 1.75-9.75s7-3 9.25-.25-.25 8.25-1.5 11.25 0 6.25 2.5 5 7-5.5 9.5-14.25 4.25-19.5 3.5-25.25-3-13.5-6-16.5-5.25-3.25-8-1-4.5 5-6.25 3.5z"/><path class="cls-6" d="M361 277.5c-9.26-2.24-11.5 7.25-24.75 9.75S316.5 289 310.5 288.5s-11.5 2-9.75 9.75 21 22.25 35.75 27.5 24.75 4 27.75-12.5 4-34-3.25-35.75z"/><path class="cls-21" d="M242.75 265.75c-3.81.32-.75 12-2.75 25.5s-5 24.75-.25 24 7-12.25 6.75-26.25-.75-23.5-3.75-23.25zM239 332.5c-4 0-8.5 5-7.25 9s7.25 6 9.25 2.5.5-11.5-2-11.5z"/><path class="cls-15" d="M208 299.5c-3.44-1.19-8.75 2.5-16.5 2.75-6.79.22-8.5-3.75-15.75 1.25s3 33.75 15 34.75 23.75-36.5 17.25-38.75z"/><path class="cls-6" d="M316 659.33c-8 0-7 13-1.67 13s9.34-13 1.67-13z"/><path class="cls-12" d="M280 526c-12 12.5-45 54-61 89 1.5 10.5 9 26 13 32.5-7 12.5-11.75 21.75-10.75 24.5 2.25-1 5.75-12 13.5-24.75-6-11.5-11-19.75-13.25-31.5 8.75-17.25 24.64-43 34.5-56C271.75 539 281.25 528.5 280 526zM138.67 563.67c-3.33 5.67-15 36.67-16.33 48 3 0 5.33-11.67 8.67-22s9.66-23.67 7.66-26zM501 393.67c4 3.33 26.33 33 29.67 40 4.5 9.45 5 90.33 1.67 96S497 560 497 560s31 37.33 31 43.33-24.33 52.34-32.67 60.67c-.33-3.33 31.33-54 29.67-60.67s-23.33-35-32.33-44.33c11.33-9 36-26.67 37-31.33s2.66-84.67-2.34-93.67S501 399.33 501 393.67zM683.67 418C666 442 642.33 486.67 636 540c4-1.67 4-28.33 21.33-70 12.51-30.07 27.34-48 26.34-52z"/><path class="cls-6" d="M174.28 280c3.38 3.38 8.1 6.53 16.76 7.09s15.86-.9 20.14-4.05 7.09-5.4 7.2-8.55c-3.15-3.49-9.56-9.34-18.9-9s-18.11 2.57-25.2 14.51z"/><g class="cls-22"><path class="cls-16" d="M175.29 282.69c5.1-1.33 6.75-5.62 9.9-8.32a18.28 18.28 0 0 1 14.63-3.6c5.63 1.13 16.65 9.38 20.47 4.8s2-18.52-24.53-16.27-25.64 24.7-20.47 23.39z"/><circle class="cls-23" cx="202" cy="273.17" r="11.66"/><circle class="cls-19" cx="202" cy="273.17" r="5.83"/><circle class="cls-7" cx="197.24" cy="274.97" r="2.81"/></g><path class="cls-19" d="M220.29 275.56a22.42 22.42 0 0 0-19-11.25c-11.25-.45-19.65 3.45-24.15 9.45s-7.2 9.75-7.05 11.25c3.15-.3 5.4-5.1 8-8.4a22.61 22.61 0 0 1 12.9-8.7c6.6-1.65 12.45-1.5 18.45.9s6.95 7.19 10.85 6.75z"/><path class="cls-7" d="M284.71 259.84c-.45 2.4 1.35 3.9 3.75 4.2s6.3 4.2 10.8 5.55 15.15 1.35 20.55-.15 15.3-8.55 15.3-12.75c-4.2-4.5-13.8-10.5-24.45-9.9s-17.85 1.21-25.95 13.05z"/><g class="cls-24"><path class="cls-6" d="M282.23 263.14c7.65.45 9.67-6.75 16.65-10.12 6-2.9 12.38-2.48 19.8 0s12.6 7.65 18.45 6.53-.23-16.2-24.52-19.13c-21.21-2.56-41.87 22.04-30.38 22.72z"/><circle class="cls-23" cx="314.11" cy="255.79" r="11.66"/><circle class="cls-19" cx="314.11" cy="255.79" r="5.83"/><circle class="cls-7" cx="309.18" cy="257.03" r="2.81"/></g><path class="cls-19" d="M282.91 261.64c2-5.1 6.15-10.5 11.55-13.2s15.9-4 24.45-1.95 14.55 5.25 18.3 11.55c-2.7.45-5.55-4.35-11.7-6.75s-12.9-4.35-22.2-2.85-13.2 6.15-15 8.7-3.45 4.95-5.4 4.5z"/><path class="cls-2" d="M413.83 567.33c-3.83 9-14.67 24.67-19.5 30-10.67.33-23.67-10.67-24.67-16.33s-1.41-20.17-3-24.5c-1.71-4.54-3.74-7.61-9-5-6 3-16.33 13.83-19.67 19.5s-4.67 26.67-9 30.67-14 6.67-19.67 13S303 629 300 630.33c-1-4.67 2.67-14 7-18s18.33-11 20.67-13 4.33-23.67 7.67-29.67 15.33-17.67 21-20.33 11.33-1.33 13 7 2.33 18.67 3 23 11.17 14.5 20.33 15.17c2.99.22 18.16-27.17 21.16-27.17zM311 601.5c-.67-2-5.67-10-10.5-14s-19.17-8.33-21.17-6.83.83 7.5 2.67 16.5 3 15 2.33 16.33-2.5 1.17-2.67 2.17c2.5 1.67 4.67 0 4.83-2.83s-.83-9.33-2.33-15.5-3.83-13.83-3.33-14.83 5 .17 10.17 2.33 9 4.17 12.33 8.5 5.17 8.66 7.67 8.16z"/></g></svg>